/* XPM */
static char *dummy[]={
"16 16 22 1",
". c #d0d2b9",
"# c #d3d5b9",
"c c #d3d6ba",
"a c #d4d6ba",
"e c #d4d7bb",
"b c #d6d7bb",
"d c #d6d8bb",
"f c #d6d8bd",
"i c #d6d9bc",
"g c #d7dabd",
"m c #d7dbbd",
"o c #d8dcbe",
"h c #d9dbbd",
"k c #d9dcbe",
"j c #dadcbf",
"l c #daddbf",
"n c #dbdec0",
"q c #dcdec0",
"p c #dddec1",
"s c #dddfc1",
"r c #dee0c2",
"t c #e0e1c3",
".#abcccccccccccc",
".#abcccccccccccc",
"#abdcccccccccccc",
"aeddeeeeeeeeeeee",
"eedfeeeeeeeeeeee",
"edddeeeeeeeeeeee",
"edgheeeeeeeeeeee",
"ddghiiiiiiiiiiii",
"ighjiiiiiiiiiiii",
"ghklmmmmmmmmmmmm",
"gklnoooooooooooo",
"kkppllllllllllll",
"klppqqqqqqqqqqqq",
"lnprssssssssssss",
"lprrssssssssssss",
"nprrtttttttttttt"};
