/* XPM */
static char *dummy[]={
"16 16 28 1",
". c #a3ae7d",
"# c #a7b27f",
"a c #a8b680",
"b c #aab781",
"g c #aab883",
"e c #abba83",
"i c #abba84",
"h c #acbb85",
"c c #adba83",
"j c #adbe85",
"f c #aebd87",
"m c #aebf86",
"d c #afbc84",
"k c #afbd85",
"o c #b0c088",
"l c #b1c088",
"n c #b3c38a",
"s c #b3c48b",
"p c #b4c48b",
"r c #b5c68d",
"q c #b6c68d",
"v c #b7c78e",
"u c #bac88e",
"t c #bbc88f",
"w c #bbc98f",
"z c #beca91",
"x c #becb92",
"y c #c0cc94",
".#aabbbbbbbbbbbb",
".#accccccccccccc",
"#acddddddddddddd",
"aedfdddddddddddd",
"gefhiiiiiiiiiiii",
"gfhiiiiiiiiiiiii",
"fffhiiiiiiiiiiii",
"dfjjjjjjjjjjjjjj",
"klmmjjjjjjjjjjjj",
"lnnnoooooooooooo",
"lpqrssssssssssss",
"pprrrrrrrrrrrrrr",
"pqtuuuuuuuuuuuuu",
"qvtuuuuuuuuuuuuu",
"qtuvwwwwwwwwwwww",
"vtxyzzzzzzzzzzzz"};
