/* XPM */
static char *dummy[]={
"1 29 18 1",
". c #8ba169",
"p c #96a867",
"o c #a5b680",
"e c #aab781",
"d c #abba83",
"g c #abba84",
"f c #adba83",
"h c #adbe85",
"c c #afbc84",
"i c #b0c088",
"b c #b3c088",
"j c #b3c48b",
"k c #b5c68d",
"l c #bac88e",
"m c #bbc98f",
"n c #beca91",
"a c #cbd7a4",
"# c #d1dca6",
".",
"#",
"a",
"b",
"c",
"d",
"e",
"e",
"f",
"c",
"c",
"g",
"g",
"g",
"h",
"h",
"i",
"j",
"k",
"l",
"l",
"m",
"n",
"n",
"n",
"m",
"m",
"o",
"p"};
