/* XPM */
static char *dummy[]={
"9 29 48 1",
"# c None",
"y c #5e764f",
"q c #6e7e5b",
"x c #72845d",
"m c #758962",
"u c #7a8962",
"t c #809267",
"w c #82956b",
"p c #899b6d",
"D c #8b9f72",
". c #8ba169",
"C c #8d9f72",
"s c #8e9f72",
"l c #92a274",
"v c #92a879",
"J c #93aa79",
"T c #96a867",
"B c #98a979",
"F c #99ad7c",
"d c #9ba979",
"o c #9baf7d",
"E c #9db27f",
"k c #9ead7c",
"S c #9eaf7d",
"R c #9fb07d",
"Q c #a2b37f",
"M c #a2b580",
"r c #a6b47f",
"i c #a8b680",
"I c #a8bc84",
"O c #a8bd85",
"z c #aab781",
"L c #aabd85",
"j c #abb882",
"n c #abba83",
"H c #adbe85",
"N c #adc088",
"A c #afbc84",
"g c #afbd85",
"f c #b0bf87",
"G c #b0c088",
"P c #b0c48b",
"h c #b1c088",
"e c #b3c48b",
"K c #bbc98f",
"c c #c4cf97",
"b c #cbd7a4",
"a c #d6e0b0",
"....#####",
"aabcd.###",
"bbbcce.##",
"ffghhid.#",
"jjjjkdlm#",
"nnnollppq",
"rrrosptuq",
"rrrovpwxy",
"zAroBCwxy",
"zAroBCDxy",
"zzAoBvDuy",
"zzzEBvDxy",
"zzzEBvDuy",
"zzzEFvvuy",
"GHHEEBvty",
"GHHIEFvuy",
"GeHIIEJty",
"eeeIIEoty",
"eeeIIIoty",
"KKKGLIMpy",
"KKKeNIOCy",
"KKKeeLOsy",
"KKKKPNOpy",
"KKKKeNOpy",
"KKKKPNOpy",
"KKKKNLOpy",
"KKKKNNOpy",
"QRSSFEOpy",
"TTTTTEOpy"};
