/* XPM */
static char *dummy[]={
"16 16 67 2",
"Qt c #acabc4",
".# c #afaec7",
".a c #b1b3c8",
".b c #b4b6c7",
".c c #b6b8c9",
".d c #b6b9c9",
".e c #b7b8c9",
".f c #b7b9c9",
".i c #b9bccb",
".j c #b9bccc",
".k c #babbcb",
".g c #babccb",
".h c #babccc",
".n c #bdc0ce",
".o c #bdc0cf",
".l c #bec0ce",
".m c #bec0cf",
".q c #c1c4d1",
".p c #c1c4d2",
".t c #c1c5d1",
".r c #c1c5d2",
".s c #c2c4d2",
".x c #c4c7d4",
".y c #c4c8d4",
".v c #c5c7d4",
".u c #c5c8d4",
".w c #c5c8d5",
".A c #cacdd8",
".F c #cacdd9",
".B c #caced8",
".D c #caced9",
".C c #cbcdd8",
".G c #cbcdd9",
".z c #cbced8",
".E c #cbced9",
".K c #cfd2dc",
".L c #cfd2dd",
".J c #cfd3dc",
".I c #d0d2dc",
".H c #d0d2dd",
".M c #d5d8e0",
".O c #d5d8e1",
".N c #d6d7e0",
".Q c #d6d7e1",
".R c #d6d8e0",
".P c #d6d8e1",
".W c #dcdde5",
".U c #dcdde6",
".T c #dcdee5",
".S c #dcdee6",
".V c #dddee5",
".Y c #e3e4ea",
".Z c #e3e4eb",
".0 c #e3e5ea",
".X c #e3e5eb",
".2 c #e9ebef",
".3 c #eaebef",
".4 c #eaebf0",
".1 c #eaecf0",
".5 c #f0f1f4",
"#a c #f0f1f5",
".6 c #f0f2f4",
"#. c #f0f2f5",
".8 c #f1f1f4",
"## c #f1f1f5",
".7 c #f1f2f4",
".9 c #f1f2f5",
"QtQtQtQtQtQtQtQtQtQtQtQtQtQtQtQt",
".#.#.#.#.#.#.#.#.#.#.#.#.#.#.#.#",
".a.a.a.a.a.a.a.a.a.a.a.a.a.a.a.a",
".b.b.b.b.b.b.b.b.b.b.b.b.b.b.b.b",
".c.d.c.c.e.c.f.e.c.d.c.e.d.e.c.f",
".g.h.g.h.g.g.g.g.g.h.i.j.g.h.g.k",
".l.l.m.m.n.m.l.n.l.m.l.n.n.n.o.m",
".p.p.q.q.r.p.s.t.s.p.q.s.p.q.p.p",
".u.u.u.v.v.w.x.y.v.u.v.v.v.w.y.u",
".z.A.B.C.D.E.F.A.F.A.E.F.F.C.G.C",
".H.I.I.J.I.I.K.I.K.I.I.I.L.K.K.K",
".M.M.N.M.O.O.M.M.P.M.N.Q.O.M.R.R",
".S.S.T.T.T.U.S.T.V.T.T.S.T.S.S.W",
".X.X.Y.Z.Y.Y.X.Y.0.X.Y.Y.0.X.0.Y",
".1.2.3.4.4.3.4.3.3.4.3.4.1.3.3.3",
".5.6.7.8.9#..8.5.8.8##.8#a.5.5#a"};
