/* XPM */
static char *dummy[]={
"1 31 26 1",
"w c #427ed2",
"a c #4f88d6",
"b c #508ad7",
"c c #518bd8",
"d c #538dda",
"e c #548edb",
"f c #5691dc",
"g c #5893de",
"h c #5a95df",
"i c #5b97e1",
"x c #5c8dd4",
"j c #5e99e3",
"# c #5f9ce4",
"k c #5f9ce5",
"l c #629ee6",
"m c #63a1e8",
"n c #65a3ea",
"o c #67a5ec",
"p c #69a7ed",
"q c #6baaef",
". c #6c8cbd",
"r c #6dabf0",
"s c #6eadf1",
"t c #6faff3",
"u c #71b0f4",
"v c #72b2f5",
".",
"#",
"a",
"a",
"a",
"b",
"c",
"d",
"e",
"f",
"g",
"h",
"i",
"j",
"k",
"l",
"m",
"n",
"o",
"p",
"q",
"r",
"s",
"t",
"u",
"v",
"v",
"v",
"v",
"w",
"x"};
