/* XPM */
static char *dummy[]={
"13 31 102 2",
".# c None",
"#H c #427ed2",
".h c #4f88d6",
".k c #5089d7",
".S c #508ad7",
".n c #518ad7",
".m c #518ad8",
".l c #518bd8",
".r c #528bd8",
".1 c #528bd9",
".q c #528cd9",
"#J c #5389d5",
".7 c #538cd9",
".p c #538dd9",
".v c #538dda",
".A c #548dda",
".u c #548eda",
".t c #548edb",
".L c #548fdb",
"#h c #558edb",
".z c #558fdb",
".y c #5590dc",
".x c #5690dc",
".D c #5691dc",
".I c #5691dd",
".0 c #5791dd",
".C c #5792dd",
".B c #5892de",
".H c #5893de",
"#n c #5993de",
".G c #5994df",
".F c #5995df",
"#w c #5a94df",
".O c #5a95df",
"#c c #5a95e0",
"#D c #5a96e0",
".K c #5b96e0",
".6 c #5b96e1",
"#g c #5b97e0",
".J c #5b97e1",
"#m c #5c98e1",
".N c #5c98e2",
"#I c #5d8cd2",
".R c #5d99e2",
".M c #5e99e3",
".5 c #5e9ae3",
".Q c #5e9ae4",
".V c #5f9be4",
".a c #5f9ce4",
"#l c #609ce5",
".U c #609de5",
".Z c #619de6",
".T c #629ee6",
".Y c #629fe7",
".b c #639de2",
"#k c #63a0e8",
".X c #63a1e8",
"#b c #64a1e8",
".4 c #64a1e9",
"#. c #64a2e9",
"#f c #65a2ea",
".3 c #65a3e9",
"#v c #65a3ea",
".9 c #66a4ea",
"#C c #66a4eb",
"#j c #67a4eb",
"#G c #67a5eb",
".8 c #67a5ec",
".c c #689edf",
"#r c #68a5ec",
"#a c #68a6ec",
"## c #69a7ed",
"#e c #69a8ed",
".i c #6a97d4",
"#z c #6aa8ee",
"#q c #6aa9ee",
".d c #6b9fde",
"#d c #6ba9ef",
"#u c #6baaef",
"Qt c #6c8cbd",
"#p c #6cabf0",
"#i c #6dabf0",
"#t c #6dadf1",
"#o c #6eadf1",
"#y c #6faef2",
"#s c #6faff3",
"#B c #70aff3",
"#F c #70b0f3",
"#x c #70b0f4",
"#A c #71b1f5",
".e c #72a0db",
"#E c #72b2f5",
".f c #84a4d2",
".g c #84a5d3",
".j c #8aa9d4",
".o c #95b1d7",
".s c #a0bbe1",
".w c #a1bce1",
".E c #adc6e8",
".P c #b4ccec",
".W c #b7ceee",
".2 c #b9d0ef",
"QtQtQtQtQtQt.#.#.#.#.#.#.#",
".a.a.b.c.d.e.f.g.#.#.#.#.#",
".h.h.h.h.h.h.h.i.j.#.#.#.#",
".h.h.h.h.h.h.h.h.i.j.#.#.#",
".h.h.h.h.h.h.h.h.h.i.j.#.#",
".k.k.k.h.h.h.h.h.h.h.i.j.#",
".l.m.n.k.h.h.h.h.h.h.h.o.#",
".p.q.r.m.k.h.h.h.h.h.h.i.s",
".t.u.v.q.m.k.h.h.h.h.h.h.w",
".x.y.z.A.q.m.k.h.h.h.h.h.w",
".B.C.D.z.A.q.n.h.h.h.h.h.E",
".F.G.H.I.z.v.r.k.h.h.h.h.E",
".J.K.F.H.D.L.q.m.h.h.h.h.E",
".M.N.J.O.H.x.A.r.k.h.h.h.P",
".a.Q.R.J.G.C.z.q.S.h.h.h.P",
".T.U.V.R.K.H.x.v.m.h.h.h.W",
".X.Y.Z.V.N.O.0.t.1.k.h.h.2",
".3.4.Y.U.5.6.H.z.7.n.h.h.2",
".8.9#..Y.V.N.G.x.v.m.h.h.2",
"###a.9#b.Z.M#c.0.u.r.h.h.2",
"#d#e.8#f.Y.V#g.B#h.1.h.h.2",
"#i#d###j#k#l#m#n.z.q.h.h.2",
"#o#p#q#r.4.Z.R.G.x.7.h.h.2",
"#s#t#u###v.T.M#w.x.v.h.h.2",
"#x#y#p#z.9.Y.5#c.I.v.h.h.2",
"#A#B#t#z#C#k.V#D.0.A.h.h.2",
"#E#F#o#d#G#k.V.6.0.u.h.h.2",
"#E#F#o#d#G#k.V.6.0.u.h.h.2",
"#E#F#o#d#G#k.V.6.0.u.h.h.2",
"#H#H#H.h.h.h.h.h.h.h.h.h.2",
"#I#I#I#I#I#J#J#J#J#J#J#J.2"};
