/* XPM */
static char *dummy[]={
"17 16 12 1",
"# c #0036d2",
". c #0037cb",
"a c #0038d8",
"b c #003ad9",
"d c #003be0",
"c c #003ddc",
"e c #0040e1",
"f c #0041e8",
"g c #0046ea",
"h c #0047ef",
"i c #004cf3",
"j c #0051f4",
".................",
"#################",
"#################",
"aaaaaaaaaaaaaaaaa",
"aaaaaaaaaaaaaaaaa",
"aaaaaaaaaaaaaaaaa",
"bbbbbbbbbbbbbbbbb",
"bbbbbbbbbbbbbbbbb",
"ccccccccccccccccc",
"ddddddddddddddddd",
"eeeeeeeeeeeeeeeee",
"fffffffffffffffff",
"ggggggggggggggggg",
"hhhhhhhhhhhhhhhhh",
"iiiiiiiiiiiiiiiii",
"jjjjjjjjjjjjjjjjj"};
