/* XPM */
static char *dummy[]={
"17 16 12 1",
". c #747cd5",
"a c #7584d8",
"# c #767fd8",
"b c #7683d9",
"c c #7783da",
"d c #7784db",
"e c #7786dc",
"f c #7987de",
"g c #7a8bde",
"h c #7b8ee1",
"i c #7c91e1",
"j c #7d94e4",
"..#aaaaaaaaaaaaaa",
".##bbbbbbbbbbbbbb",
"##bbbbbbbbbbbbbbb",
"#bbcccccccccccccc",
"bbbdddddddddddddd",
"ccddddddddddddddd",
"ccddddddddddddddd",
"ccddddddddddddddd",
"ccddddddddddddddd",
"deeeeeeeeeeeeeeee",
"fffffffffffffffff",
"ggggggggggggggggg",
"hhhhhhhhhhhhhhhhh",
"hhhhhhhhhhhhhhhhh",
"iiijjjjjjjjjjjjjj",
"jjjjjjjjjjjjjjjjj"};
