/* XPM */
static char *dummy[]={
"1 29 18 1",
". c #6689df",
"e c #7689d9",
"g c #7786dc",
"f c #7789db",
"d c #778edb",
"h c #788add",
"i c #798dde",
"c c #7a96df",
"j c #7b8ee1",
"k c #7c91e1",
"l c #7c94e2",
"m c #7d97e4",
"n c #7e98e5",
"o c #7e9be5",
"p c #7f9de6",
"b c #87a6e5",
"# c #92ace7",
"a c #94b1e8",
".",
"#",
"a",
"b",
"c",
"d",
"e",
"e",
"f",
"f",
"f",
"g",
"g",
"g",
"f",
"h",
"i",
"j",
"k",
"l",
"m",
"n",
"o",
"p",
"p",
"o",
"l",
"i",
"i"};
