/* XPM */
static char *dummy[]={
"1 29 21 1",
"h c #003eda",
"f c #003fd2",
"g c #003fd7",
"i c #0040dc",
"j c #0040e1",
"s c #0043cf",
"e c #0043d6",
"k c #0046e4",
"l c #0046ea",
"d c #004ad8",
". c #004be7",
"m c #004cef",
"n c #0051f0",
"c c #0054e3",
"o c #0055f4",
"p c #0057f6",
"q c #0058f7",
"r c #0059f8",
"b c #0060ee",
"a c #2189ff",
"# c #318cff",
".",
"#",
"a",
"b",
"c",
"d",
"e",
"f",
"g",
"g",
"h",
"h",
"h",
"h",
"i",
"j",
"j",
"k",
"l",
"m",
"n",
"o",
"p",
"q",
"r",
"o",
"m",
"i",
"s"};
